<svg xmlns="http://www.w3.org/2000/svg" width="445" height="154" fill="none" viewBox="0 0 445 154"><mask id="mask0_8945_3109" width="24" height="25" x="0" y="0" maskUnits="userSpaceOnUse" style="mask-type:luminance"><path fill="#fff" d="M0 .09h24v24H0v-24Z"/></mask><g stroke-linecap="round" stroke-linejoin="round" mask="url(#mask0_8945_3109)"><path stroke="#0E4D65" stroke-width="1.5" d="M18.5 9.976s.5 1.726.5 4.615c0 2.889-.389 5.417-.778 5.778-.389.36-3.11.722-6.222.722-3.111 0-5.833-.361-6.222-.722-.39-.361-.778-2.89-.778-5.778 0-2.889.5-4.615.5-4.615m13 0c.307-.017.518-.034.611-.052.445-.083.889-.666.889-1.333 0-.667-.444-1.25-.889-1.333-.444-.084-3.555-.167-7.111-.167-3.556 0-6.667.083-7.111.167C4.444 7.34 4 7.924 4 8.59c0 .667.444 1.25.889 1.333a6 6 0 0 0 .611.053m13 0c-1.158.063-3.69.114-6.5.114s-5.342-.051-6.5-.114m6.366-3.036c.549-2.05 3.696-5.598 5.196-3 1.5 2.598-3.147 3.549-5.196 3Zm.196 0c-.549-2.05-3.696-5.598-5.196-3-1.5 2.598 3.147 3.549 5.196 3Z"/><path stroke="#fff" stroke-width="5" d="m20 22.09-2.025-2.024m0 0a3.5 3.5 0 1 0-4.863-5.037 3.5 3.5 0 0 0 4.863 5.037Z"/><path stroke="#0E4D65" stroke-width="1.5" d="m20 22.09-2.025-2.024m0 0a3.5 3.5 0 1 0-4.863-5.037 3.5 3.5 0 0 0 4.863 5.037Z"/></g><g clip-path="url(#clip0_8945_3109)"><path stroke="#0E4D65" stroke-linecap="round" stroke-linejoin="round" stroke-width="1.5" d="M53 11.59v-4a4 4 0 1 1 8 0v4m-8-3h8c3 0 4 3.89 4 5.5 0 6.027-1.603 7-8 7s-8-.973-8-7c0-1.61 1-5.5 4-5.5Z"/></g><g clip-path="url(#clip1_8945_3109)"><mask id="mask1_8945_3109" width="24" height="25" x="90" y="0" maskUnits="userSpaceOnUse" style="mask-type:luminance"><path fill="#fff" d="M90 .5h24v24H90V.5Z"/></mask><g mask="url(#mask1_8945_3109)"><path stroke="#0E4D65" stroke-linecap="round" stroke-linejoin="round" stroke-width="1.5" d="m111 21.5-6-6m-5 2a7.002 7.002 0 0 0 7-7 6.996 6.996 0 0 0-4.321-6.467A7.001 7.001 0 1 0 100 17.5Z"/></g></g><g clip-path="url(#clip2_8945_3109)"><path fill="#0E4D65" d="M141.5 4a1.747 1.747 0 0 0-1.75-1.75A1.749 1.749 0 1 0 141.5 4Zm0 8.5a1.747 1.747 0 0 0-1.75-1.75 1.749 1.749 0 1 0 1.75 1.75Zm0 8.5a1.747 1.747 0 0 0-1.75-1.75A1.749 1.749 0 1 0 141.5 21Z"/></g><g clip-path="url(#clip3_8945_3109)"><path fill="#0E4D65" d="M179.04 5.686a1.001 1.001 0 0 1 1.274 1.274l-4.08 11.66c-.3.854-1.49.903-1.858.075l-2.02-4.544a1.002 1.002 0 0 0-.507-.507l-4.544-2.02c-.828-.367-.78-1.558.076-1.857l11.659-4.08v-.001Z"/></g><g clip-path="url(#clip4_8945_3109)"><path stroke="#0E4D65" stroke-linecap="round" stroke-linejoin="round" stroke-width="1.5" d="m206 10.5 4 4 4-4"/></g><path stroke="#0E4D65" stroke-linecap="round" stroke-linejoin="round" stroke-width="1.5" d="m243.666 16.583 4.375-4.375-4.375-4.375M295 19.202c0-3.031-3.5-3.702-6-3.702s-6 .67-6 3.702m15-6.702a9.006 9.006 0 0 1-2.636 6.364 9.003 9.003 0 0 1-12.728 0A8.992 8.992 0 0 1 280 12.5a9 9 0 1 1 18 0Zm-6-3a2.999 2.999 0 0 1-5.121 2.121 2.999 2.999 0 1 1 4.242-4.242c.563.562.879 1.325.879 2.121ZM343 6.5v.007m0 6.993-3.5-5a4.005 4.005 0 0 1 .054-3.968A4.008 4.008 0 0 1 343 2.563a3.998 3.998 0 0 1 3.5 5.937l-3.5 5ZM335.5 5.249l-1.5-.75m0 0-6 3v13l6-3m0-13v13m0 0 6 3m0 0 6-3v-2m-6 5V15.5M391.5 10.385s.5 1.726.5 4.615c0 2.889-.389 5.417-.778 5.778-.389.361-3.11.722-6.222.722-3.111 0-5.833-.361-6.222-.722-.39-.361-.778-2.889-.778-5.778s.5-4.615.5-4.615m13 0c.307-.017.518-.034.611-.052.445-.083.889-.666.889-1.333 0-.667-.444-1.25-.889-1.333-.444-.084-3.555-.167-7.111-.167-3.556 0-6.667.083-7.111.167-.445.083-.889.666-.889 1.333 0 .667.444 1.25.889 1.333.093.018.304.035.611.052m13 0c-1.158.063-3.69.115-6.5.115s-5.342-.052-6.5-.115m6.366-3.035c.549-2.049 3.696-5.598 5.196-3 1.5 2.598-3.147 3.55-5.196 3Zm.196 0c-.549-2.049-3.696-5.598-5.196-3-1.5 2.598 3.147 3.55 5.196 3Z"/><g clip-path="url(#clip5_8945_3109)"><mask id="mask2_8945_3109" width="24" height="25" x="421" y="0" maskUnits="userSpaceOnUse" style="mask-type:luminance"><path fill="#fff" d="M421 .5h24v24h-24V.5Z"/></mask><g mask="url(#mask2_8945_3109)"><path stroke="#0E4D65" stroke-linecap="round" stroke-linejoin="round" stroke-width="1.5" d="M424 21.5h18m-18-14v1a2.999 2.999 0 0 0 5.121 2.121A2.999 2.999 0 0 0 430 8.5m-6-1h18m-18 0 2-4h14l2 4m-12 1v-1m0 1a2.999 2.999 0 0 0 5.121 2.121A2.999 2.999 0 0 0 436 8.5m6-1v1a2.999 2.999 0 0 1-5.121 2.121A2.999 2.999 0 0 1 436 8.5m0 0v-1m-10 14V11.35m14 10.15V11.35M430 21.5v-4a2 2 0 0 1 2-2h2a2 2 0 0 1 2 2v4"/></g></g><g clip-path="url(#clip6_8945_3109)"><mask id="mask3_8945_3109" width="25" height="24" x="49" y="49" maskUnits="userSpaceOnUse" style="mask-type:luminance"><path fill="#fff" d="M49.5 49h24v24h-24V49Z"/></mask><g stroke="#0E4D65" stroke-linecap="round" stroke-linejoin="round" stroke-width="1.5" mask="url(#mask3_8945_3109)"><path fill="#0E4D65" d="M58 58.5a1 1 0 1 0 0-2 1 1 0 0 0 0 2Z"/><path d="M53.5 56v3.859c0 .537.213 1.052.593 1.432l8.116 8.116a2.022 2.022 0 0 0 2.864 0l4.834-4.834a2.022 2.022 0 0 0 0-2.864l-8.117-8.116A2.025 2.025 0 0 0 60.359 53H56.5a3 3 0 0 0-3 3Z"/></g></g><g clip-path="url(#clip7_8945_3109)"><mask id="mask4_8945_3109" width="25" height="24" x="97" y="49" maskUnits="userSpaceOnUse" style="mask-type:luminance"><path fill="#fff" d="M97.5 49h24v24h-24V49Z"/></mask><g mask="url(#mask4_8945_3109)"><path stroke="#0E4D65" stroke-linecap="round" stroke-linejoin="round" stroke-width="1.5" d="M102.5 53h4l2 5-2.5 1.5a10.998 10.998 0 0 0 5 5l1.5-2.5 5 2v4a2 2 0 0 1-2 2 15.998 15.998 0 0 1-15-15 2 2 0 0 1 2-2Z"/></g></g><path fill="#0E4D65" d="M163.801 54.61a8.83 8.83 0 0 0-6.3-2.61 8.936 8.936 0 0 0-7.723 4.46 8.93 8.93 0 0 0-.017 8.917l-1.261 4.624 4.725-1.237a8.924 8.924 0 0 0 4.264 1.125 9 9 0 0 0 9.001-8.922 8.993 8.993 0 0 0-2.689-6.357Zm-6.3 13.737a7.403 7.403 0 0 1-3.78-1.035l-.27-.168-2.802.742.742-2.734-.18-.28a7.423 7.423 0 0 1 1.685-9.718 7.425 7.425 0 0 1 9.848.525 7.482 7.482 0 0 1 2.25 5.243 7.491 7.491 0 0 1-7.494 7.425h.001Zm4.061-5.557c-.225-.113-1.316-.653-1.519-.72-.202-.068-.36-.113-.506.112-.22.302-.457.59-.709.866-.123.158-.258.17-.484 0a5.997 5.997 0 0 1-3.026-2.644c-.236-.393.225-.37.652-1.215a.434.434 0 0 0 0-.393c0-.113-.506-1.216-.686-1.654-.18-.44-.36-.372-.506-.383h-.439a.792.792 0 0 0-.596.281 2.457 2.457 0 0 0-.743 1.902c.07.841.388 1.644.912 2.306a10.004 10.004 0 0 0 3.814 3.375c.808.472 1.747.67 2.677.563a2.247 2.247 0 0 0 1.497-1.058c.15-.33.196-.699.135-1.057-.102-.113-.248-.169-.473-.28Z"/><g clip-path="url(#clip8_8945_3109)"><mask id="mask5_8945_3109" width="25" height="24" x="193" y="49" maskUnits="userSpaceOnUse" style="mask-type:luminance"><path fill="#fff" d="M193.5 49h24v24h-24V49Z"/></mask><g stroke="#0E4D65" stroke-linejoin="round" stroke-width="1.5" mask="url(#mask5_8945_3109)"><path d="M211.5 65a3.998 3.998 0 0 0 2.828-6.828A3.998 3.998 0 0 0 211.5 57m-12 0a3.998 3.998 0 0 0-2.828 6.828A3.998 3.998 0 0 0 199.5 65"/><path stroke-linecap="round" d="M199.5 65v-8a6 6 0 1 1 12 0v8a6 6 0 0 1-6 6"/></g></g><g fill="#0E4D65" clip-path="url(#clip9_8945_3109)"><path d="M253.5 53a8.003 8.003 0 0 0-7.391 4.938 7.993 7.993 0 0 0-.455 4.623 7.993 7.993 0 0 0 6.285 6.285 7.998 7.998 0 0 0 7.215-13.5A8.009 8.009 0 0 0 253.5 53Zm0 14.545A6.545 6.545 0 1 1 260.045 61a6.552 6.552 0 0 1-6.545 6.545Z"/><path d="M253.499 56.394a.971.971 0 1 0 0 1.942.971.971 0 0 0 0-1.942Zm.001 3.394a.726.726 0 0 0-.727.727v4.364a.72.72 0 0 0 .203.532.733.733 0 0 0 .809.165.733.733 0 0 0 .396-.41.738.738 0 0 0 .047-.287v-4.364a.738.738 0 0 0-.213-.514.734.734 0 0 0-.515-.213Z"/></g><g clip-path="url(#clip10_8945_3109)"><mask id="mask6_8945_3109" width="17" height="16" x="289" y="53" maskUnits="userSpaceOnUse" style="mask-type:luminance"><path fill="#fff" d="M289.5 53h16v16h-16V53Z"/></mask><g stroke="#0E4D65" stroke-linecap="round" stroke-linejoin="round" mask="url(#mask6_8945_3109)"><path d="m291.5 59 2.667-2.667m0 0L296.833 59m-2.666-2.667v9.334M303.5 63l-2.667 2.667m0 0L298.166 63m2.667 2.667v-9.334"/></g></g><path stroke="#0E4D65" stroke-linecap="round" stroke-linejoin="round" stroke-width="1.5" d="M336.929 54.755c-2.073 1.415-3.429 3.763-3.429 6.422 0 4.32 3.582 7.823 8 7.823s8-3.503 8-7.823c0-2.66-1.356-5.008-3.429-6.422M341.5 52v8.941"/><g clip-path="url(#clip11_8945_3109)"><path fill="#0E4D65" d="M394.25 52.84h-11.5a1.25 1.25 0 0 0 0 2.5h11.5a1.25 1.25 0 0 0 0-2.5Zm0 7h-15.5a1.25 1.25 0 0 0 0 2.5h15.5a1.25 1.25 0 0 0 0-2.5Zm0 7h-11.5a1.25 1.25 0 0 0 0 2.5h11.5a1.25 1.25 0 0 0 0-2.5Z"/></g><g clip-path="url(#clip12_8945_3109)"><mask id="mask7_8945_3109" width="57" height="57" x="56" y="97" maskUnits="userSpaceOnUse" style="mask-type:luminance"><path fill="#fff" d="M56 97h57v57H56V97Z"/></mask><g mask="url(#mask7_8945_3109)"><path fill="#124D64" stroke="#124D64" d="M112.5 125.5c0-15.464-12.536-28-28-28s-28 12.536-28 28 12.536 28 28 28 28-12.536 28-28Z"/><path fill="#fff" stroke="#fff" stroke-linecap="round" stroke-linejoin="round" stroke-width="2" d="m84.5 138-5.063-5h-3.375a5.096 5.096 0 0 1-3.58-1.465A4.971 4.971 0 0 1 71 128v-10c0-1.326.533-2.598 1.483-3.535a5.096 5.096 0 0 1 3.58-1.465h16.875c1.342 0 2.63.527 3.58 1.465A4.971 4.971 0 0 1 98 118v10a4.968 4.968 0 0 1-1.483 3.535 5.096 5.096 0 0 1-3.58 1.465h-3.374l-5.063 5Z"/><path stroke="#124D64" stroke-linecap="round" stroke-linejoin="round" stroke-width="2" d="M78 120h13m-13 7h10"/></g></g><g clip-path="url(#clip13_8945_3109)"><path fill="#000" d="M162 150.5c13.807 0 25-11.193 25-25s-11.193-25-25-25-25 11.193-25 25 11.193 25 25 25Z"/><path fill="#fff" d="M168.75 114.997h3.546l-7.745 8.849 9.11 12.04h-7.133l-5.588-7.301-6.394 7.302H151l8.284-9.465-8.74-11.425h7.315l5.05 6.675 5.843-6.675h-.002Zm-1.244 18.769h1.965l-12.68-16.76h-2.108l12.823 16.76Z"/></g><g clip-path="url(#clip14_8945_3109)"><path fill="#BD081C" d="M226.8 148.7c-10.5-3.9-18.6-16.2-14.9-29.7 3.7-13.9 18.2-21.7 31.7-17.3 13.6 4.4 20.8 19.1 15.8 32.4-5 13.6-19.4 18.9-30.6 15.3.9-2 2-3.9 2.7-6 .7-2.1 1.2-4.2 1.7-6.3.4.4.8.9 1.3 1.2 1.8 1.3 3.8 1.6 6 1.3 3.8-.5 6.6-2.5 8.6-5.6 2.5-3.9 3.4-8.3 2.5-12.8-1-4.9-4-8.3-8.6-10.1-5.9-2.3-11.6-1.8-16.9 1.7-3.5 2.3-5.4 5.8-6 10-.5 3.5.2 6.7 2.3 9.6.7 1 1.5 1.7 2.6 2.3.5.3.8.2.9-.4.2-.9.4-1.7.6-2.6 0-.3 0-.6-.2-.8-3.2-4.4-2-10.8 2.2-14.1 3.7-3 9.7-3.3 13.5-.6 2.4 1.7 3.7 4 4.1 6.9.3 3.2-.1 6.3-1.8 9.1-1 1.8-2.5 3.1-4.6 3.6-.9.2-1.7.2-2.6 0-1.9-.6-2.9-2.3-2.4-4.2.5-2.1 1.2-4.2 1.7-6.4.2-.9.3-2 .2-2.9-.3-2.3-2.5-3.3-4.6-2.3-1.7.8-2.5 2.3-2.8 4.1-.3 1.7-.2 3.4.4 5 .1.3.1.6.1.9-.9 3.9-1.9 7.8-2.8 11.8-.5 2.2-.4 4.4-.2 6.7v.4c.1-.3.1-.3.1-.2Z"/></g><g clip-path="url(#clip15_8945_3109)"><path fill="#fff" d="M298 118.5h-10a2 2 0 0 0-2 2v10a2 2 0 0 0 2 2h10a2 2 0 0 0 2-2v-10a2 2 0 0 0-2-2Z"/><path stroke="#BF360C" stroke-width="1.5" d="M298 118.5h-10a2 2 0 0 0-2 2v10a2 2 0 0 0 2 2h10a2 2 0 0 0 2-2v-10a2 2 0 0 0-2-2Z"/><path fill="#BF360C" d="m293.239 122.638-3.208 5.5a.22.22 0 0 0 .012.243.306.306 0 0 0 .249.119h6.416a.306.306 0 0 0 .249-.119.218.218 0 0 0 .012-.243l-3.208-5.5a.3.3 0 0 0-.261-.138.3.3 0 0 0-.261.138Z"/></g><g clip-path="url(#clip16_8945_3109)"><path fill="#fff" d="M338 118.5h-10a2 2 0 0 0-2 2v10a2 2 0 0 0 2 2h10a2 2 0 0 0 2-2v-10a2 2 0 0 0-2-2Z"/><path fill="#2A0" d="M337 125.5a4 4 0 1 0-8 0 4 4 0 0 0 8 0Z"/><path stroke="#2A0" stroke-width="1.5" d="M338 118.5h-10a2 2 0 0 0-2 2v10a2 2 0 0 0 2 2h10a2 2 0 0 0 2-2v-10a2 2 0 0 0-2-2Z"/></g><path fill="#0E4D65" fill-rule="evenodd" d="M368.024 130.104c-.491-.079-.796-.233-.997-.456-.158-.176-.264-.401-.321-.702-.061-.324-.065-.763-.065-1.357v-1.51c0-.008-.014-.97.852-1.733.521-.458 1.381-.862 2.827-.862s2.307.404 2.827.862c.867.763.853 1.725.853 1.733v1.51c0 .594-.004 1.033-.066 1.357-.057.301-.162.526-.32.701-.202.224-.506.378-.997.457a3.084 3.084 0 0 1-.033.276c-.052.306-.155.518-.3.674-.152.164-.358.277-.656.336-.293.058-.711.063-1.308.063-.597 0-1.014-.005-1.307-.063-.298-.059-.504-.172-.656-.336-.145-.156-.248-.368-.3-.674a3.084 3.084 0 0 1-.033-.276Zm4.616-.948a.49.49 0 0 0 .277-.136c.077-.086.096-.212.115-.376.032-.27.031-.614.031-1.055v-1.51c0-.005-.015-.571-.535-1.029-.404-.355-1.085-.628-2.208-.628-1.123 0-1.803.273-2.207.628-.521.458-.535 1.024-.535 1.029v1.51c0 .441-.001.785.03 1.055.019.164.038.29.115.376a.49.49 0 0 0 .277.136V126.812a.469.469 0 0 1 .938 0v2.18c0 .477-.002.835.026 1.104.015.148.018.254.08.32.053.057.142.058.262.072.246.029.576.028 1.014.028.439 0 .768.001 1.015-.028.12-.014.209-.015.262-.072.061-.066.064-.172.08-.32.027-.269.026-.627.026-1.104v-2.18a.469.469 0 0 1 .938 0v2.18l-.001.164Zm8.65.948c-.492-.079-.796-.233-.997-.456-.158-.176-.264-.401-.321-.702-.062-.324-.066-.763-.066-1.357v-1.51c0-.008-.014-.97.853-1.733.52-.458 1.381-.862 2.827-.862s2.306.404 2.827.862c.867.763.853 1.725.853 1.733v1.51c0 .594-.005 1.033-.066 1.357-.057.301-.163.526-.321.701-.201.224-.505.378-.997.457a3.107 3.107 0 0 1-.032.276c-.053.306-.155.518-.301.674-.152.164-.357.277-.656.336-.292.058-.71.063-1.307.063s-1.015-.005-1.307-.063c-.299-.059-.504-.172-.657-.336-.145-.156-.247-.368-.3-.674a3.107 3.107 0 0 1-.032-.276Zm4.616-.948a.49.49 0 0 0 .277-.136c.077-.086.096-.212.115-.376.032-.27.03-.614.03-1.055v-1.51c0-.005-.014-.571-.534-1.029-.405-.355-1.085-.628-2.208-.628-1.123 0-1.804.273-2.208.628-.52.458-.534 1.024-.534 1.029v1.51c0 .441-.002.785.03 1.055.019.164.038.29.115.376a.49.49 0 0 0 .277.136V126.812a.469.469 0 0 1 .937 0v2.18c0 .477-.001.835.027 1.104.015.148.018.254.079.32.053.057.143.058.262.072.247.029.576.028 1.015.028.439 0 .768.001 1.015-.028.119-.014.209-.015.262-.072.061-.066.064-.172.079-.32.028-.269.027-.627.027-1.104v-2.18a.469.469 0 0 1 .937 0V129.156Zm-13.63-11.864.746.118a.47.47 0 1 1-.145.926l-1.834-.289a.47.47 0 0 1-.39-.537l.289-1.833a.469.469 0 0 1 .926.146l-.108.684a10.364 10.364 0 0 1 5.24-1.413c2.23 0 4.295.701 5.989 1.895a.47.47 0 0 1-.54.766 9.428 9.428 0 0 0-5.449-1.724c-1.72 0-3.334.459-4.724 1.261Zm9.964 17.189a10.354 10.354 0 0 1-5.24 1.414c-2.23 0-4.295-.701-5.989-1.895a.47.47 0 0 1 .54-.766 9.427 9.427 0 0 0 5.449 1.723c1.72 0 3.334-.458 4.724-1.26l-.746-.118a.47.47 0 1 1 .146-.926l1.833.289a.468.468 0 0 1 .39.536l-.289 1.834a.47.47 0 0 1-.926-.146l.108-.685Zm-11.873-11.278c-1.098 0-1.992-.9-1.992-2.015 0-1.116.894-2.016 1.992-2.016 1.098 0 1.992.9 1.992 2.016a2.004 2.004 0 0 1-1.992 2.015Zm0-.937c.585 0 1.055-.485 1.055-1.078 0-.594-.47-1.079-1.055-1.079-.584 0-1.054.485-1.054 1.079 0 .593.47 1.078 1.054 1.078Zm13.266.937c-1.098 0-1.992-.9-1.992-2.015 0-1.116.894-2.016 1.992-2.016 1.098 0 1.992.9 1.992 2.016a2.004 2.004 0 0 1-1.992 2.015Zm0-.937c.584 0 1.055-.485 1.055-1.078 0-.594-.471-1.079-1.055-1.079-.585 0-1.055.485-1.055 1.079 0 .593.47 1.078 1.055 1.078Z" clip-rule="evenodd"/><defs><clipPath id="clip0_8945_3109"><path fill="#fff" d="M48 2.5h18v20H48z"/></clipPath><clipPath id="clip1_8945_3109"><path fill="#fff" d="M90 .5h24v24H90z"/></clipPath><clipPath id="clip2_8945_3109"><path fill="#fff" d="M138 1.5h4v22h-4z"/></clipPath><clipPath id="clip3_8945_3109"><path fill="#fff" d="M166 5.5h15v14h-15z"/></clipPath><clipPath id="clip4_8945_3109"><path fill="#fff" d="M205 9h10v7h-10z"/></clipPath><clipPath id="clip5_8945_3109"><path fill="#fff" d="M421 .5h24v24h-24z"/></clipPath><clipPath id="clip6_8945_3109"><path fill="#fff" d="M49.5 49h24v24h-24z"/></clipPath><clipPath id="clip7_8945_3109"><path fill="#fff" d="M97.5 49h24v24h-24z"/></clipPath><clipPath id="clip8_8945_3109"><path fill="#fff" d="M193.5 49h24v24h-24z"/></clipPath><clipPath id="clip9_8945_3109"><path fill="#fff" d="M241.5 49h24v24h-24z"/></clipPath><clipPath id="clip10_8945_3109"><path fill="#fff" d="M289.5 53h16v16h-16z"/></clipPath><clipPath id="clip11_8945_3109"><path fill="#fff" d="M377.5 52h18v18h-18z"/></clipPath><clipPath id="clip12_8945_3109"><path fill="#fff" d="M56 97h57v57H56z"/></clipPath><clipPath id="clip13_8945_3109"><path fill="#fff" d="M137 100.5h50v50h-50z"/></clipPath><clipPath id="clip14_8945_3109"><path fill="#fff" d="M211 100.5h50v50h-50z"/></clipPath><clipPath id="clip15_8945_3109"><path fill="#fff" d="M285 117.5h16v16h-16z"/></clipPath><clipPath id="clip16_8945_3109"><path fill="#fff" d="M325 117.5h16v16h-16z"/></clipPath></defs></svg>